HIERARCHY
ROOT Hips
{
	OFFSET 0.000000 0.000000 0.000000
	CHANNELS 6 Xposition Yposition Zposition Xrotation Yrotation Zrotation
	JOINT LeftUpLeg_virtual
	{
		OFFSET 0.000000 0.000000 0.000000
		CHANNELS 3 Xrotation Yrotation Zrotation
		JOINT LeftUpLeg
		{
			OFFSET 10.205400 -3.823500 0.155100
			CHANNELS 3 Xrotation Yrotation Zrotation
			JOINT LeftLeg
			{
				OFFSET 0.708757 -12.982077 0.567790
				CHANNELS 3 Xrotation Yrotation Zrotation
				JOINT LeftFoot
				{
					OFFSET -0.708756 -10.717838 -2.184338
					CHANNELS 3 Xrotation Yrotation Zrotation
					JOINT LeftToeBase
					{
						OFFSET 0.108149 -7.191104 7.560241
						CHANNELS 3 Xrotation Yrotation Zrotation
						JOINT LeftToe_End
						{
							OFFSET 0.070230 0.081724 4.490308
							CHANNELS 3 Xrotation Yrotation Zrotation
							End Site
							{
								OFFSET 0 0 0
							}
						}
					}
				}
			}
		}
	}
	JOINT RightUpLeg_virtual
	{
		OFFSET 0.000000 0.000000 0.000000
		CHANNELS 3 Xrotation Yrotation Zrotation
		JOINT RightUpLeg
		{
			OFFSET -10.205400 -3.823500 0.005500
			CHANNELS 3 Xrotation Yrotation Zrotation
			JOINT RightLeg
			{
				OFFSET -0.708756 -12.982134 0.610632
				CHANNELS 3 Xrotation Yrotation Zrotation
				JOINT RightFoot
				{
					OFFSET 0.708754 -10.717769 -1.945823
					CHANNELS 3 Xrotation Yrotation Zrotation
					JOINT RightToeBase
					{
						OFFSET -0.108140 -7.191069 7.372968
						CHANNELS 3 Xrotation Yrotation Zrotation
						JOINT RightToe_End
						{
							OFFSET -0.070227 0.081735 4.479403
							CHANNELS 3 Xrotation Yrotation Zrotation
							End Site
							{
								OFFSET 0 0 0
							}
						}
					}
				}
			}
		}
	}
	JOINT Spine_virtual
	{
		OFFSET 0.000000 0.000000 0.000000
		CHANNELS 3 Xrotation Yrotation Zrotation
		JOINT Spine
		{
			OFFSET 0.000000 6.876099 0.125700
			CHANNELS 3 Xrotation Yrotation Zrotation
			JOINT Spine1
			{
				OFFSET 0.000000 5.730043 0.104720
				CHANNELS 3 Xrotation Yrotation Zrotation
				JOINT Spine1_split
				{
					OFFSET 0.000000 5.730043 0.104720
					CHANNELS 3 Xrotation Yrotation Zrotation
					JOINT Spine2
					{
						OFFSET 0.000000 5.730043 0.104720
						CHANNELS 3 Xrotation Yrotation Zrotation
						JOINT Neck_virtual
						{
							OFFSET 0.000000 0.000000 0.000000
							CHANNELS 3 Xrotation Yrotation Zrotation
							JOINT Neck
							{
								OFFSET 0.000000 10.314075 0.188496
								CHANNELS 3 Xrotation Yrotation Zrotation
								JOINT Head
								{
									OFFSET 0.000000 7.643700 -2.377400
									CHANNELS 3 Xrotation Yrotation Zrotation
									JOINT HeadTop_End
									{
										OFFSET 0.000000 43.788605 -13.619600
										CHANNELS 3 Xrotation Yrotation Zrotation
										End Site
										{
											OFFSET 0 0 0
										}
									}
								}
							}
						}
						JOINT LeftShoulder_virtual
						{
							OFFSET 0.000000 0.000000 0.000000
							CHANNELS 3 Xrotation Yrotation Zrotation
							JOINT LeftShoulder
							{
								OFFSET 2.196100 4.412489 0.087492
								CHANNELS 3 Xrotation Yrotation Zrotation
								JOINT LeftShoulder_split
								{
									OFFSET 2.196100 4.412489 0.087492
									CHANNELS 3 Xrotation Yrotation Zrotation
									JOINT LeftArm
									{
										OFFSET 8.771219 -2.981674 -0.026999
										CHANNELS 3 Xrotation Yrotation Zrotation
										JOINT LeftForeArm
										{
											OFFSET 8.512804 0.000000 -0.000000
											CHANNELS 3 Xrotation Yrotation Zrotation
											JOINT LeftHand
											{
												OFFSET 18.484802 0.000000 -0.000000
												CHANNELS 3 Xrotation Yrotation Zrotation
												End Site
												{
													OFFSET 0 0 0
												}
											}
										}
									}
								}
							}
						}
						JOINT RightShoulder_virtual
						{
							OFFSET 0.000000 0.000000 0.000000
							CHANNELS 3 Xrotation Yrotation Zrotation
							JOINT RightShoulder
							{
								OFFSET -2.196100 4.412496 0.070690
								CHANNELS 3 Xrotation Yrotation Zrotation
								JOINT RightShoulder_split
								{
									OFFSET -2.196100 4.412496 0.070690
									CHANNELS 3 Xrotation Yrotation Zrotation
									JOINT RightArm
									{
										OFFSET -8.771282 -2.981682 -0.094208
										CHANNELS 3 Xrotation Yrotation Zrotation
										JOINT RightForeArm
										{
											OFFSET -8.494598 0.000000 0.000000
											CHANNELS 3 Xrotation Yrotation Zrotation
											JOINT RightHand
											{
												OFFSET -18.483803 0.000000 0.000001
												CHANNELS 3 Xrotation Yrotation Zrotation
												End Site
												{
													OFFSET 0 0 0
												}
											}
										}
									}
								}
							}
						}
					}
				}
			}
		}
	}
}
MOTION
Frames: 4
Frame Time: 0.03333333
-2.315863 27.448572 -0.852671 0.000000 0.000000 0.000000 -2.390256 -14.334815 4.150971 -55.112366 13.002899 39.453741 58.331687 -25.029802 -3.324827 2.885678 -9.223925 -27.355893 1.299502 -5.999777 4.100058 0.000000 0.000000 0.000000 -3.779647 -9.846916 4.861095 -14.033555 4.153015 -24.846208 52.806846 5.808843 -1.763859 -40.511997 -22.898764 40.979011 6.038096 3.183983 -19.560263 0.000000 0.000000 0.000000 -3.563347 -1.240441 4.456134 5.244307 7.720419 -0.198116 7.575437 6.653361 -2.048179 0.260488 -1.505703 0.220829 0.000000 0.000000 0.000000 10.388982 5.900960 1.108909 -5.300409 18.041670 11.835863 7.840228 39.086451 -23.922049 0.000000 0.000000 0.000000 1.736722 3.762825 -1.436725 0.516503 -14.250153 3.859570 -1.193121 1.810809 -4.033158 -24.318129 22.978322 -53.301714 1.067476 -53.890182 8.063380 0.000000 0.000000 0.000000 1.698784 2.332253 1.482194 -1.659725 -7.284012 -1.675203 -15.185399 15.005128 -3.297650 9.359023 -13.097743 45.657031 -34.015886 32.837658 19.535296 0.000000 0.000000 0.000000 
-2.496186 27.444031 -0.845686 0.000000 0.000000 0.000000 -2.553757 -16.033869 4.549541 -53.472984 11.796986 39.397467 60.798615 -24.519821 -2.525167 -0.954508 -7.119127 -28.926428 3.332320 -5.971233 4.051473 0.000000 0.000000 0.000000 -3.367521 -12.140146 4.827223 -14.241015 4.209250 -24.907132 53.066970 5.754431 -1.896987 -41.598659 -23.405407 40.174237 11.350228 2.578889 -19.907136 0.000000 0.000000 0.000000 -2.651572 -3.125338 4.665917 5.376913 7.348241 -0.406047 7.522104 6.813182 -2.128585 0.158308 -1.415326 0.205031 0.000000 0.000000 0.000000 9.751809 5.867094 1.044773 -5.535435 18.157238 12.558742 7.957679 39.525458 -23.441708 0.000000 0.000000 0.000000 1.878034 3.845043 -1.649120 0.406538 -13.459721 3.885214 -1.538075 1.141684 -3.190003 -23.152393 23.263095 -53.256768 0.704176 -55.353697 7.741523 0.000000 0.000000 0.000000 1.952078 2.603848 1.344127 -1.532026 -5.419411 -1.106845 -15.944993 15.081437 -3.996970 8.838700 -13.212142 47.177964 -34.413348 33.538585 19.925579 0.000000 0.000000 0.000000 
-2.621376 27.390245 -0.825134 0.000000 0.000000 0.000000 -2.147517 -19.858358 5.020586 -50.281394 10.546304 39.163687 63.199310 -22.372167 -2.404040 -6.163266 -2.455712 -26.520387 7.273708 -5.770747 3.610382 0.000000 0.000000 0.000000 -2.554369 -15.858775 4.811782 -15.812159 5.587072 -25.307536 53.954314 5.919875 -2.289658 -41.344586 -24.305983 40.350463 15.102571 2.074372 -21.104651 0.000000 0.000000 0.000000 -1.750224 -6.233687 4.730323 5.597702 7.131171 -0.820877 7.684896 6.864968 -2.287542 0.044173 -1.339569 0.110905 0.000000 0.000000 0.000000 9.522249 5.839716 0.673141 -6.084982 17.964651 13.130906 6.930554 40.198655 -21.291732 0.000000 0.000000 0.000000 2.280964 3.812703 -1.976825 0.113498 -12.208846 4.584391 -1.597545 -1.089463 -3.253285 -20.586976 23.972222 -52.278480 -0.025772 -58.485400 6.410818 0.000000 0.000000 0.000000 2.307503 2.740165 1.061585 -1.421543 -3.051977 -0.011757 -16.795174 14.017279 -4.708910 8.028139 -11.991927 48.412596 -33.759183 34.113776 19.442186 0.000000 0.000000 0.000000 
-2.718482 27.237556 -0.834476 0.000000 0.000000 0.000000 -1.459872 -25.281409 5.309556 -46.835936 8.601833 38.189531 66.481906 -20.261324 -2.184654 -9.985168 1.813113 -21.558560 9.511082 -5.645153 2.969048 0.000000 0.000000 0.000000 -1.889025 -20.024339 4.862794 -18.519614 8.218229 -25.798200 55.971409 5.923526 -2.630652 -39.217748 -25.484559 41.289023 15.531855 1.850581 -22.619406 0.000000 0.000000 0.000000 -1.033685 -10.639097 4.594258 5.857528 7.103410 -1.444016 8.117164 6.804601 -2.411607 -0.044802 -1.250041 0.030093 0.000000 0.000000 0.000000 9.729374 5.841850 0.158328 -7.020095 17.441808 13.403375 5.014179 41.067185 -18.013405 0.000000 0.000000 0.000000 2.955650 3.691489 -2.249504 -0.409830 -10.739830 5.728596 -0.954322 -3.627726 -4.166481 -16.972948 25.040520 -50.506834 -1.101016 -62.767506 4.154960 0.000000 0.000000 0.000000 2.843810 2.806364 0.789996 -1.279223 -0.219900 1.474338 -17.714874 11.919669 -4.778756 6.474113 -9.551085 48.909188 -31.896519 33.948055 17.884147 0.000000 0.000000 0.000000 
